# xmcd CD database file
#
# Track frame offsets:
#	150
#	17111
#	38613
#	58670
#	78276
#	97347
#	117502
#	134412
#	155919
#	175969
#	195584
#	214682
#
# Disc length: 3129 seconds
#
# Revision: 1
# Processed by: cddbd v1.5.1PL2 Copyright (c) Steve Scherf et al.
# Submitted via: CDex 1.51
#
DISCID=aa0c370c
DTITLE=Chu!☆Lips - 聴くクスリ
DYEAR=2005
DGENRE=JPop
TTITLE0=ヒロイン気分にゃ★ひたレンジャー！
TTITLE1=大好きよパパ
TTITLE2=恋はイリュージョン
TTITLE3=必殺！からくり館は江戸の花
TTITLE4=とびっきり！恋の大ジャンプはＫ点超え
TTITLE5=Icha Ichaしたいロケンロール！
TTITLE6=ヒロイン気分にゃ★ひたレンジャー！（カラオケ）
TTITLE7=大好きよパパ（カラオケ）
TTITLE8=恋はイリュージョン（カラオケ）
TTITLE9=必殺！からくり館は江戸の花（カラオケ）
TTITLE10=とびっきり！恋の大ジャンプはＫ点超え（カラオケ）
TTITLE11=Icha Ichaしたいロケンロール！（カラオケ）
EXTD=YEAR: 2005
EXTT0=
EXTT1=
EXTT2=
EXTT3=
EXTT4=
EXTT5=
EXTT6=
EXTT7=
EXTT8=
EXTT9=
EXTT10=
EXTT11=
PLAYORDER=
